<svg width="66" height="63" viewBox="0 0 66 63" fill="none" xmlns="http://www.w3.org/2000/svg">
<path d="M25.4717 41.5954L25.3535 41.2628H25.0005H11.0592H10.6993L10.5851 41.6041L7.73684 50.1104L7.72922 50.1331L7.72381 50.1566C7.70571 50.2349 7.63756 50.2857 7.55205 50.2766L7.52556 50.2737H7.49892H0.519227C0.519396 50.273 0.519567 50.2723 0.519739 50.2716L12.5786 17.0272L12.5825 17.0164L12.5859 17.0056C12.6956 16.6538 12.8054 16.3369 12.9557 15.9031L12.9671 15.8704L12.9738 15.8365C13.1238 15.0791 13.2015 14.2895 13.2078 13.5H22.7144C22.7269 13.5 22.7378 13.5005 22.7473 13.5013L36.3759 50.3098H28.6732H28.639L28.6059 50.3143C28.6051 50.3143 28.596 50.314 28.5812 50.3041C28.5624 50.2915 28.5546 50.2766 28.5529 50.2709L28.5492 50.2583L28.5448 50.2459L25.4717 41.5954ZM12.7641 34.4161L12.5138 35.0901H13.2328H22.7519H23.4221L23.2312 34.4477C23.0032 33.6803 22.7006 32.771 22.3614 31.8284C22.0268 30.8628 21.6915 29.824 21.3554 28.7464L21.3555 28.7463L21.3521 28.7362C21.1657 28.1804 20.9885 27.6332 20.8104 27.0832L20.8099 27.0818C20.6322 26.533 20.4535 25.9813 20.2653 25.4202C19.8915 24.3058 19.5569 23.2685 19.26 22.2335L19.26 22.2335L19.2587 22.229C19.1285 21.7908 19.0035 21.3596 18.8821 20.9405C18.728 20.4089 18.5796 19.8969 18.4334 19.4148L18.3258 19.0599H17.9549H17.88H17.4771L17.3914 19.4536C17.0574 20.9885 16.6499 22.5199 16.1321 24.0492L16.1321 24.0492L16.1302 24.0551C15.9145 24.7189 15.6998 25.3901 15.4835 26.0666C15.1329 27.1626 14.778 28.2723 14.4074 29.3862L14.4025 29.4009L14.3985 29.4159C13.9176 31.2306 13.3246 32.9067 12.7641 34.4161ZM47.2242 37.9468H46.6526L46.7286 38.5133C46.887 39.6941 47.2841 40.8845 47.9676 41.9285L47.9675 41.9286L47.975 41.9395C48.7035 42.9905 49.7179 43.8118 50.9373 44.2821C52.4955 44.9182 54.2107 45.2558 55.9297 45.2183L55.9325 45.2182C57.2554 45.1819 58.5908 45.0729 59.8958 44.8159C60.9545 44.6832 61.9817 44.4351 62.9516 44.0974V49.2959C62.9516 49.3485 62.941 49.4082 62.918 49.5027C62.9055 49.5153 62.892 49.5268 62.8757 49.5386C61.7261 50.0184 60.5415 50.3616 59.2853 50.5687L59.2853 50.5686L59.2761 50.5703C57.5477 50.8886 55.82 51.0301 54.055 50.9947V50.9946H54.0449C51.2449 50.9946 48.9166 50.5691 47.0451 49.773L47.0452 49.7729L47.04 49.7708C45.2792 49.045 43.7316 47.9035 42.5066 46.4831C41.3527 45.1302 40.5245 43.6058 40.02 41.9421L40.0191 41.9393C39.5096 40.2944 39.2545 38.5782 39.2545 36.8248C39.2545 34.9309 39.546 33.0751 40.1648 31.2548L40.1658 31.2518C40.7448 29.5117 41.6491 27.9109 42.8808 26.4824L42.8816 26.4815C44.0703 25.0957 45.5492 23.9845 47.2497 23.1842C48.9155 22.4002 50.9298 22.1144 53.2954 22.1144V22.1145L53.3045 22.1143C55.2246 22.0795 57.1397 22.4281 58.9061 23.1908L58.9098 23.1924C60.376 23.8115 61.6571 24.7368 62.6515 25.9308C63.5931 27.116 64.3467 28.4316 64.8119 29.8774L64.8143 29.8843C65.283 31.2715 65.5 32.6949 65.5 34.1216C65.5 34.9667 65.4637 35.7082 65.4265 36.3875C65.3893 36.7284 65.3614 37.0245 65.3382 37.2742L65.3307 37.3548C65.3112 37.5654 65.2955 37.7351 65.28 37.8713C65.2793 37.8737 65.278 37.8775 65.2754 37.8822C65.2715 37.8893 65.2661 37.8963 65.2599 37.902C65.2464 37.9143 65.2415 37.9108 65.2505 37.9108C65.0877 37.9108 64.8338 37.9279 64.5135 37.9494C64.3526 37.9603 64.175 37.9722 63.9837 37.9837L63.9689 37.9846L63.9541 37.9864C63.3803 38.0554 62.6893 38.091 61.8401 38.091C61.4425 38.091 61.0334 38.0585 60.5867 38.0231L60.5539 38.0205C60.1009 37.9845 59.6139 37.9468 59.1043 37.9468H47.2242ZM46.728 33.1225L46.6579 33.6844H47.2242H55.1318H55.1633C56.1112 33.6844 56.8381 33.6844 57.3079 33.6468L57.3178 33.646L57.3276 33.6448C57.6618 33.6046 58.0543 33.5186 58.413 33.2722L58.6299 33.1232V32.86V32.4996C58.6299 31.9753 58.5456 31.4883 58.3783 31.0047C57.6328 28.778 55.4536 27.28 53.0381 27.3496C50.8013 27.2401 48.6765 28.3774 47.6092 30.3509C47.1277 31.2383 46.8476 32.1639 46.728 33.1225Z" stroke="#28D960"/>
</svg>
