<svg width="48" height="48" viewBox="0 0 48 48" fill="none" xmlns="http://www.w3.org/2000/svg">
<path d="M0.502915 38.2652V0.802034C1.44606 0.777088 2.43711 0.73593 3.49716 0.691906C5.66351 0.601938 8.11806 0.5 11.041 0.5C16.185 0.5 19.8403 1.55537 22.1314 3.71431L22.1313 3.71434L22.1362 3.71881C23.264 4.7538 24.1563 6.00955 24.7556 7.40399C25.355 8.79839 25.648 10.3006 25.6161 11.8128L25.616 11.8128V11.8234C25.616 15.8602 24.1707 18.7921 21.3198 20.7123C18.41 22.6723 14.7262 23.6706 10.2362 23.6729V23.6728L10.2277 23.673L7.05179 23.7283L6.5605 23.7369V24.2283V38.2652H0.502915ZM6.5605 19.0365V19.5562L7.07985 19.5361H7.07988L7.08005 19.5361L7.08084 19.5361L7.08416 19.5359L7.09765 19.5354L7.15122 19.5335C7.19844 19.5318 7.26823 19.5294 7.35806 19.5265C7.53774 19.5207 7.79752 19.5129 8.11715 19.5052C8.7566 19.4897 9.63459 19.4742 10.5893 19.4742C13.1829 19.4742 15.3343 18.9146 17.0015 17.7505C18.7344 16.5404 19.556 14.5767 19.5584 11.99V11.9895C19.5584 9.6979 18.8303 7.86655 17.3236 6.57094C15.8262 5.28328 13.7058 4.68244 11.0402 4.69177H11.0353C10.4005 4.69177 9.7595 4.69177 9.12728 4.71996C8.51828 4.74711 8.0198 4.74715 7.62511 4.74715C7.60262 4.74715 7.57888 4.74703 7.55426 4.7469C7.4042 4.74614 7.22122 4.74521 7.08669 4.7704C7.0099 4.78478 6.83304 4.82535 6.69827 4.98005C6.56226 5.13617 6.54423 5.31374 6.5605 5.44668V19.0365ZM37.4081 11.5758H37.4164L37.4246 11.5755C37.4603 11.5743 37.4944 11.585 37.5214 11.6042C37.5483 11.6234 37.5661 11.6494 37.5741 11.6769L37.5854 11.7152L37.6026 11.7513C38.024 12.6353 38.2676 13.5902 38.3204 14.564L38.3921 15.8866L39.2123 14.8466C41.3592 12.1241 43.9723 10.9043 47.4945 10.8838V16.7965C44.0914 16.6126 41.2378 17.0452 39.1445 19.0871C38.9028 19.2896 38.7048 19.5387 38.5631 19.8198C38.4179 20.1076 38.335 20.4224 38.3202 20.744L38.3197 20.7555V20.7671V38.2652H32.2879C32.2785 38.2652 32.2699 38.265 32.2621 38.2647V18.6904C32.2621 16.3568 32.1735 15.0057 32.0371 13.9905C31.9504 13.3457 31.8411 12.8239 31.7293 12.2898C31.6808 12.0578 31.6317 11.8235 31.5838 11.5758H37.4081ZM31.5489 11.3811C31.5489 11.3811 31.5489 11.382 31.5488 11.3837C31.5488 11.3819 31.5488 11.381 31.5489 11.3811ZM31.3842 11.5769C31.3822 11.5773 31.3811 11.5774 31.3811 11.5774C31.381 11.5773 31.382 11.5771 31.3842 11.5769Z" stroke="#28D960"/>
</svg>
