<svg width="57" height="57" viewBox="0 0 57 57" fill="none" xmlns="http://www.w3.org/2000/svg">
<g clip-path="url(#clip0_12_18)">
<path d="M23.4098 3.48524H30.2037L20.2471 19.9634L20.0905 20.2227L20.2478 20.4816L30.8779 37.9747H23.4436C23.1707 37.9747 23.0038 37.9642 22.885 37.9324C22.8043 37.9108 22.7601 37.8836 22.7233 37.8392C22.3736 37.1386 22.0162 36.4466 21.6606 35.7581L21.6596 35.7562C21.2964 35.053 20.9351 34.3535 20.5825 33.6461L20.5826 33.6461L20.5803 33.6418C19.8673 32.2454 19.0874 30.817 18.2762 29.3591L18.2437 29.3007C17.4441 27.8637 16.6457 26.4288 15.8476 24.961L15.7056 24.6999H15.4084H15.3409H15.0282L14.8913 24.981C14.1882 26.4253 13.4173 27.871 12.6413 29.3264L12.6377 29.3331C12.6377 29.3331 12.6377 29.3332 12.6377 29.3332C11.862 30.7876 11.0854 32.2443 10.3421 33.6674C10.0818 34.1441 9.8224 34.623 9.56349 35.101C9.04724 36.0541 8.53289 37.0037 8.01714 37.9258L8.00115 37.9544L7.98902 37.9848C7.9822 38.0019 7.97665 38.0118 7.97345 38.0168C7.9733 38.0169 7.97315 38.017 7.973 38.017C7.96194 38.0213 7.93578 38.029 7.88326 38.0346C7.83026 38.0402 7.76475 38.0424 7.67709 38.0424H0.681658L11.0078 21.0575L11.1632 20.8018L11.0114 20.544L0.946348 3.45125H8.28477C8.37295 3.45125 8.47088 3.46632 8.56975 3.48838C8.5946 3.50664 8.62405 3.53462 8.66234 3.58172C9.30544 5.03572 10.0457 6.48567 10.8145 7.92753L10.8144 7.92757L10.8188 7.93543C10.9664 8.20061 11.1131 8.46512 11.2595 8.72907C11.9136 9.90849 12.5616 11.0768 13.2543 12.2443C14.0577 13.6548 14.7948 15.0662 15.499 16.5126L15.6359 16.7937H15.9486H16.016H16.3318L16.4675 16.5086C17.1729 15.0265 17.9123 13.5764 18.6537 12.1567C19.3927 10.7419 20.1655 9.32622 20.9409 7.90597L20.9452 7.89807C20.9452 7.89807 20.9452 7.89806 20.9452 7.89805C21.4051 7.05573 21.8574 6.19342 22.3025 5.34486C22.6081 4.76225 22.9103 4.18613 23.2092 3.62742L23.2384 3.57279L23.2534 3.51268C23.257 3.49832 23.2612 3.48497 23.2657 3.47316C23.2744 3.47167 23.2873 3.4706 23.3111 3.4754L23.36 3.48524H23.4098Z" stroke="#28D960"/>
<path d="M39.3531 37.2086L39.3522 37.2082C37.3215 36.2705 35.6394 34.7156 34.4722 32.7971C33.2829 30.8299 32.6878 28.3528 32.6878 25.3355H32.6878L32.6877 25.3288C32.6553 22.9129 33.2737 20.5299 34.4773 18.441C35.7155 16.3169 37.5065 14.5541 39.6528 13.3799L39.6528 13.3799L39.6567 13.3777C41.9287 12.108 44.676 11.4771 47.9543 11.4771C48.1201 11.4771 48.333 11.4773 48.6078 11.5078C48.7848 11.5277 48.9694 11.5367 49.1491 11.5455L49.1631 11.5462L49.1634 11.5462C49.3261 11.5541 49.4907 11.5621 49.6681 11.577L50.2099 11.6224V11.0788V0.50525H56.7387V32.5486C56.7387 33.1139 56.767 33.7333 56.7972 34.3931L56.7975 34.4001L56.7975 34.4001L56.8067 34.6029L56.8073 34.6153L56.8085 34.6277C56.8647 35.2184 56.8972 35.7867 56.9264 36.2996L56.9281 36.3302C56.9325 36.4065 56.9367 36.482 56.9411 36.5559C56.9397 36.5959 56.931 36.6113 56.9303 36.6124C56.9301 36.6128 56.93 36.613 56.9297 36.6133C56.9295 36.6136 56.9292 36.6139 56.9286 36.6144C56.9273 36.6155 56.9213 36.6204 56.9068 36.6267C55.188 37.356 53.3679 37.8872 51.5128 38.2196C49.8166 38.5199 48.1241 38.6859 46.4013 38.6859L46.3945 38.686C43.9676 38.7188 41.544 38.2252 39.3531 37.2086ZM50.2115 0.350521C50.2116 0.350562 50.2114 0.351584 50.211 0.353458L50.2115 0.350521ZM50.2099 17.5129V17.1119L49.8185 17.0248L49.8025 17.0212C49.5079 16.9556 49.1831 16.8833 48.8537 16.8467L48.8537 16.8466L48.8437 16.8457L48.8287 16.8443C48.4657 16.8112 48.0767 16.7758 47.6843 16.7758C46.3012 16.7758 44.9046 17.0603 43.6426 17.7107C42.4207 18.3239 41.3774 19.2264 40.587 20.3796L40.587 20.3796C39.771 21.5704 39.3864 23.1332 39.3854 24.9559C39.3509 26.205 39.5648 27.4502 39.9893 28.6213L39.9903 28.624C40.3511 29.6016 40.8953 30.477 41.6245 31.2084L41.6244 31.2085L41.6342 31.2178C42.3265 31.8756 43.1673 32.3905 44.1213 32.6859C45.0878 33.0084 46.0854 33.1502 47.0766 33.1502C47.5893 33.1502 48.0661 33.1167 48.496 33.0838C49.0002 33.1168 49.4288 33.0343 49.8684 32.8873L50.2099 32.7732V32.4131V17.5129Z" stroke="#28D960"/>
</g>
<defs>
<clipPath id="clip0_12_18">
<rect width="57" height="57" fill="white"/>
</clipPath>
</defs>
</svg>
