<svg width="48" height="48" viewBox="0 0 48 48" fill="none" xmlns="http://www.w3.org/2000/svg">
<g clip-path="url(#clip0_12_13)">
<path d="M31.504 21.336V21.336L31.5071 21.336C33.0033 21.3268 34.4549 21.845 35.6071 22.7994C36.6959 23.7198 37.4031 25.0074 37.4848 26.4535C37.5661 27.9419 36.9716 29.3303 35.9064 30.3726C34.7822 31.4477 33.2556 32.108 31.572 32.108H31.438C29.7548 32.108 28.2279 31.448 27.0973 30.3703C26.032 29.3278 25.4379 27.9414 25.5192 26.4553L25.5262 26.329C25.6426 24.9323 26.3421 23.6924 27.3996 22.7989C28.4903 21.8881 29.9053 21.336 31.454 21.336H31.504Z" stroke="#1BD056"/>
<path d="M43.8015 37.5986L43.8069 37.5927C45.1826 36.0875 46.2206 34.3057 46.8515 32.3666L46.8789 32.2698L46.8811 32.2622L46.8835 32.2546C47.2965 30.9544 47.5045 29.5978 47.5 28.2336L47.5 28.2327C47.4963 25.6601 46.7688 23.1405 45.4006 20.9619L45.4004 20.9616C44.458 19.4585 43.2598 18.132 41.86 17.0421L41.8312 17.0213L40.5778 16.116H40.6557L26.7875 5.46859L26.7874 5.46849C26.4001 5.17098 25.8547 5.00613 25.2695 5.007C24.6858 5.00787 24.1047 5.174 23.6584 5.48587L23.6583 5.48593C23.2094 5.79939 23.0029 6.18301 22.9722 6.52248C22.9423 6.85375 23.0724 7.21429 23.4437 7.51994L23.8224 7.83164L29.6915 12.6061L30.7811 13.4925L29.3765 13.494L10.2906 13.514C9.60856 13.5149 8.93397 13.7403 8.40013 14.108C7.86375 14.4775 7.50294 14.9658 7.38734 15.4698L7.3871 15.4708C7.27209 15.9675 7.41114 16.4022 7.72686 16.7248C8.05054 17.0556 8.59058 17.2954 9.30182 17.298L9.8 17.2998V17.301L18.959 17.282L20.4367 17.2789L19.2644 18.1786L1.95642 31.4626L1.95581 31.4631C0.459943 32.6075 0.130094 34.3736 0.919925 35.3841L0.920321 35.3846C1.72587 36.4178 3.58995 36.5346 5.10447 35.3121C5.10491 35.3118 5.10536 35.3114 5.1058 35.311L14.5114 27.615L15.49 26.8143L43.8015 37.5986ZM43.8015 37.5986L43.7963 37.6046L43.7896 37.6125C42.285 39.2581 40.4572 40.5758 38.4205 41.4833L38.4201 41.4835C36.2524 42.4516 33.8537 42.994 31.326 42.994L31.188 42.994L31.1863 42.994C28.7706 43.002 26.3805 42.4987 24.1732 41.5171L24.1652 41.5136L24.1572 41.5104L24.0618 41.4718C22.0554 40.5733 20.2559 39.2707 18.7757 37.6453L18.7745 37.644C17.3687 36.1115 16.3149 34.2902 15.6869 32.3076C15.4243 31.4743 15.2436 30.4316 15.2051 29.8201M43.8015 37.5986L15.2051 29.8201M15.2051 29.8201L15.2019 29.6544C15.1965 29.3746 15.2253 28.9839 15.2581 28.6484C15.2742 28.4838 15.2907 28.3379 15.3031 28.2333C15.3093 28.181 15.3145 28.1392 15.3181 28.1106L15.3223 28.0782L15.3233 28.0701L15.3236 28.0682L15.3236 28.0678L15.3237 28.0678L15.3237 28.0677L15.2051 29.8201ZM41.4111 30.0809L41.4107 30.0821C40.9357 31.3606 40.1943 32.5234 39.2356 33.4934L39.1776 33.5522L39.1734 33.5543C37.1395 35.5929 34.3227 36.7397 31.2874 36.744C28.2203 36.7523 25.3756 35.5917 23.3365 33.5196C22.3869 32.5657 21.6495 31.4219 21.1724 30.1632L21.168 30.1514L21.1641 30.1395L21.1469 30.086C20.792 29.1054 20.6123 28.07 20.616 27.0271C20.616 27.0268 20.616 27.0265 20.616 27.0262L21.116 27.028L41.4111 30.0809ZM41.4111 30.0809C41.8645 28.851 42.0399 27.536 41.9246 26.2303L41.4111 30.0809Z" stroke="#28D960"/>
</g>
<defs>
<clipPath id="clip0_12_13">
<rect width="48" height="48" fill="white"/>
</clipPath>
</defs>
</svg>
