<svg width="46" height="46" viewBox="0 0 46 46" fill="none" xmlns="http://www.w3.org/2000/svg">
<g clip-path="url(#clip0_12_33)">
<path d="M36.3837 21.7951L36.3837 21.7952C35.8167 26.7623 33.6078 32.7426 30.9301 36.2185C29.7141 36.5036 28.4412 36.6699 27.1036 36.6699C17.68 36.6699 10.0839 29.4221 10.0833 20.5343C10.0884 19.2903 10.245 18.0517 10.5496 16.8459C13.1278 14.762 17.0622 12.5469 23.0795 11.4573C26.9917 10.749 29.858 10.0722 31.6556 9.15363C32.5612 8.69087 33.2482 8.14131 33.6473 7.44618C33.9268 6.9594 34.0481 6.43126 34.0308 5.86495C37.129 7.27748 39.6618 9.6994 41.2108 12.7384C40.7593 12.9106 40.3339 13.1512 39.9336 13.43L39.9334 13.4301C39.1163 13.9997 38.3718 14.7319 37.7601 16.0252C37.1574 17.2995 36.6923 19.1002 36.3837 21.7951ZM33.6004 5.13618L33.4343 5.17502L33.6004 5.13618ZM32.7549 37.5929L32.755 37.5928C34.2417 35.9087 35.4782 33.4587 36.4119 31.0475C37.3485 28.6291 37.9984 26.2023 38.2929 24.53C38.4622 23.5687 38.5646 22.7774 38.657 22.0638C38.8877 20.2807 39.0557 18.9823 40.0483 16.727C40.3585 16.0226 41.1222 15.268 41.8931 15.0087C42.2648 14.8837 42.5993 14.8857 42.8825 15.0161C43.1645 15.146 43.4745 15.4396 43.7258 16.0552C43.7844 16.199 43.8483 16.3406 43.9173 16.4797C44.8878 18.9571 45.3856 21.5945 45.385 24.2553V24.2554C45.385 36.3044 35.3501 46.0942 22.9425 46.0942C10.5349 46.0942 0.5 36.3044 0.5 24.2554C0.5 12.2065 10.5349 2.41668 22.9425 2.41668L22.9431 2.41668C25.3245 2.41398 27.6919 2.78152 29.9604 3.5061C30.3056 3.64889 30.758 3.88043 31.1335 4.21551C31.5115 4.55289 31.7867 4.97112 31.8343 5.49574C31.8606 5.78925 31.6604 6.24553 30.9747 6.77764C30.3129 7.2912 29.298 7.79136 27.9816 8.17562C27.0452 8.44826 25.9785 8.64484 24.749 8.87142C24.235 8.96613 23.6927 9.06609 23.1194 9.17903C21.1961 9.558 18.9879 10.0739 16.5198 11.0156C14.0411 11.9614 11.4474 13.417 9.24309 15.2448C7.0417 17.0703 5.202 19.2895 4.27535 21.7709C2.46266 26.625 2.67924 30.4283 4.2423 33.7963L4.2423 33.7963C5.1666 35.7877 6.86452 38.1348 9.13061 40.0634C11.3982 41.9934 14.2633 43.5281 17.5226 43.8393C20.7215 44.1448 23.4886 43.7745 25.9867 42.7203C28.4825 41.6671 30.6781 39.9447 32.7549 37.5929Z" stroke="#28D960"/>
</g>
<defs>
<clipPath id="clip0_12_33">
<rect width="46" height="46" fill="white"/>
</clipPath>
</defs>
</svg>
