<svg width="40" height="40" viewBox="0 0 40 40" fill="none" xmlns="http://www.w3.org/2000/svg">
<path opacity="0.15" fill-rule="evenodd" clip-rule="evenodd" d="M12 1C10.8954 1 10 1.89543 10 3V37C10 38.1046 10.8954 39 12 39H27.9C29.0046 39 29.9 38.1046 29.9 37V3C29.9 1.89543 29.0046 1 27.9 1H24.6631V2H15.2368V1H12Z" fill="url(#paint0_linear_1_4)"/>
<path d="M17.5085 35.6745C17.135 35.6745 16.8322 35.9773 16.8322 36.3508C16.8322 36.7243 17.135 37.0271 17.5085 37.0271V35.6745ZM22.4633 37.0271C22.8368 37.0271 23.1396 36.7243 23.1396 36.3508C23.1396 35.9773 22.8368 35.6745 22.4633 35.6745V37.0271ZM9.40002 29.4141C9.40002 29.7876 9.70283 30.0904 10.0764 30.0904C10.4499 30.0904 10.7527 29.7876 10.7527 29.4141H9.40002ZM10.7527 32.387C10.7527 32.0134 10.4499 31.7106 10.0764 31.7106C9.70283 31.7106 9.40002 32.0134 9.40002 32.387H10.7527ZM29.2192 7.61303C29.2192 7.98656 29.522 8.28936 29.8955 8.28936C30.269 8.28936 30.5718 7.98656 30.5718 7.61303H29.2192ZM30.5718 10.5859C30.5718 10.2124 30.269 9.90956 29.8955 9.90956C29.522 9.90956 29.2192 10.2124 29.2192 10.5859H30.5718ZM27.48 38.6473H12.4918V40H27.48V38.6473ZM12.4918 1.35266H15.5266V0H12.4918V1.35266ZM14.8503 1.69206H16.203V0.676328H14.8503V1.69206ZM16.4928 3.33457H23.4791V1.98191H16.4928V3.33457ZM15.5266 1.35266H24.4452V0H15.5266V1.35266ZM24.4452 1.35266H27.48V0H24.4452V1.35266ZM25.1216 1.69206V0.676328H23.7689V1.69206H25.1216ZM17.5085 37.0271H22.4633V35.6745H17.5085V37.0271ZM10.7527 29.4141V3.09179H9.40002V29.4141H10.7527ZM10.7527 36.9082V32.387H9.40002V36.9082H10.7527ZM29.2192 3.09179V7.61303H30.5718V3.09179H29.2192ZM29.2192 10.5859V36.9082H30.5718V10.5859H29.2192ZM23.4791 3.33457C24.3862 3.33457 25.1216 2.5992 25.1216 1.69206H23.7689C23.7689 1.85214 23.6392 1.98191 23.4791 1.98191V3.33457ZM12.4918 38.6473C11.5313 38.6473 10.7527 37.8687 10.7527 36.9082H9.40002C9.40002 38.6157 10.7843 40 12.4918 40V38.6473ZM27.48 40C29.1876 40 30.5718 38.6157 30.5718 36.9082H29.2192C29.2192 37.8687 28.4405 38.6473 27.48 38.6473V40ZM27.48 1.35266C28.4405 1.35266 29.2192 2.13129 29.2192 3.09179H30.5718C30.5718 1.38424 29.1876 0 27.48 0V1.35266ZM14.8503 1.69206C14.8503 2.5992 15.5857 3.33457 16.4928 3.33457V1.98191C16.3327 1.98191 16.203 1.85214 16.203 1.69206H14.8503ZM12.4918 0C10.7843 0 9.40002 1.38424 9.40002 3.09179H10.7527C10.7527 2.13129 11.5313 1.35266 12.4918 1.35266V0Z" fill="url(#paint1_linear_1_4)"/>
<defs>
<linearGradient id="paint0_linear_1_4" x1="11.1277" y1="1" x2="39.7018" y2="17.5237" gradientUnits="userSpaceOnUse">
<stop offset="0.259336" stop-color="#4BF17D"/>
<stop offset="1" stop-color="#00BC40"/>
</linearGradient>
<linearGradient id="paint1_linear_1_4" x1="10.5998" y1="8.06736e-07" x2="40.8368" y2="17.6727" gradientUnits="userSpaceOnUse">
<stop offset="0.259336" stop-color="#4AF17C"/>
<stop offset="1" stop-color="#00BC40"/>
</linearGradient>
</defs>
</svg>
