<svg width="43" height="43" viewBox="0 0 43 43" fill="none" xmlns="http://www.w3.org/2000/svg">
<g clip-path="url(#clip0_4_17)">
<path opacity="0.15" d="M4.47919 4.47917H38.5209V38.5208H4.47919V4.47917Z" fill="#2DDC64"/>
<path opacity="0.15" d="M1.79169 1.79167H7.16669V7.16667H1.79169V1.79167ZM41.2084 7.16667H35.8334V1.79167H41.2084V7.16667ZM1.79169 35.8333H7.16669V41.2083H1.79169V35.8333ZM41.2084 41.2083H35.8334V35.8333H41.2084V41.2083Z" fill="#2DDC64"/>
<path d="M21.5 14.3333C19.4004 14.3233 17.3033 14.4821 15.2292 14.8081L15.471 14.3781C15.5359 14.2762 15.5794 14.1621 15.599 14.0429C15.6186 13.9237 15.6139 13.8018 15.5851 13.6844C15.5564 13.5671 15.5042 13.4567 15.4317 13.3601C15.3592 13.2634 15.268 13.1824 15.1633 13.122C15.0587 13.0615 14.943 13.0228 14.8231 13.0082C14.7031 12.9937 14.5815 13.0035 14.4654 13.0372C14.3494 13.0708 14.2414 13.1276 14.1479 13.2041C14.0543 13.2806 13.9773 13.3752 13.9212 13.4823C12.5865 15.7846 12.7119 15.5785 12.7029 15.5965C12.6282 15.6982 12.5759 15.8146 12.5493 15.9381C12.5227 16.0615 12.5225 16.1891 12.5488 16.3126C12.575 16.4361 12.627 16.5527 12.7014 16.6547C12.7759 16.7566 12.871 16.8417 12.9806 16.9044C15.3456 18.266 15.3008 18.284 15.6233 18.284C15.8188 18.282 16.0083 18.2161 16.1629 18.0963C16.3174 17.9766 16.4286 17.8095 16.4793 17.6207C16.5301 17.4319 16.5177 17.2317 16.444 17.0506C16.3703 16.8695 16.2394 16.7175 16.0713 16.6177L15.901 16.5192C17.755 16.2493 19.6265 16.1176 21.5 16.125C29.1862 16.125 33.1458 18.0063 33.1458 18.8125C33.1458 19.6188 29.1862 21.5 21.5 21.5C13.8137 21.5 9.85417 19.6188 9.85417 18.8125C9.85417 18.696 9.98854 18.481 10.3737 18.2123C10.5686 18.0745 10.7007 17.8649 10.741 17.6297C10.7813 17.3945 10.7266 17.153 10.5887 16.9581C10.4509 16.7633 10.2414 16.6312 10.0062 16.5909C9.77099 16.5506 9.52941 16.6053 9.33458 16.7431C8.96842 16.9565 8.66068 17.2571 8.43874 17.6181C8.21681 17.9791 8.08756 18.3894 8.0625 18.8125C8.0625 24.7877 34.9375 24.7877 34.9375 18.8125C34.9375 15.7308 27.9679 14.3333 21.5 14.3333Z" fill="#3BE670"/>
<path fill-rule="evenodd" clip-rule="evenodd" d="M41.8418 7.80012C41.6738 7.96812 41.4459 8.0625 41.2083 8.0625H39.4167V34.9375H41.2083C41.4459 34.9375 41.6738 35.0319 41.8418 35.1999C42.0098 35.3679 42.1042 35.5957 42.1042 35.8333V41.2083C42.1042 41.4459 42.0098 41.6738 41.8418 41.8418C41.6738 42.0098 41.4459 42.1042 41.2083 42.1042H35.8333C35.5958 42.1042 35.3679 42.0098 35.1999 41.8418C35.0319 41.6738 34.9375 41.4459 34.9375 41.2083V39.4167H8.06251V41.2083C8.06251 41.4459 7.96813 41.6738 7.80013 41.8418C7.63213 42.0098 7.40427 42.1042 7.16668 42.1042H1.79168C1.55409 42.1042 1.32623 42.0098 1.15823 41.8418C0.990226 41.6738 0.895844 41.4459 0.895844 41.2083V35.8333C0.895844 35.5957 0.990226 35.3679 1.15823 35.1999C1.32623 35.0319 1.55409 34.9375 1.79168 34.9375H3.58334V8.0625H1.79168C1.55409 8.0625 1.32623 7.96812 1.15823 7.80012C0.990226 7.63212 0.895844 7.40426 0.895844 7.16667V1.79167C0.895844 1.55408 0.990226 1.32622 1.15823 1.15822C1.32623 0.990216 1.55409 0.895834 1.79168 0.895834H7.16668C7.40427 0.895834 7.63213 0.990216 7.80013 1.15822C7.96813 1.32622 8.06251 1.55408 8.06251 1.79167V3.58333H34.9375V1.79167C34.9375 1.55408 35.0319 1.32622 35.1999 1.15822C35.3679 0.990216 35.5958 0.895834 35.8333 0.895834H41.2083C41.4459 0.895834 41.6738 0.990216 41.8418 1.15822C42.0098 1.32622 42.1042 1.55408 42.1042 1.79167V7.16667C42.1042 7.40426 42.0098 7.63212 41.8418 7.80012ZM40.3125 2.6875H36.7292V6.27083H40.3125V2.6875ZM6.27084 2.6875H2.68751V6.27083H6.27084V2.6875ZM2.68751 40.3125H6.27084V36.7292H2.68751V40.3125ZM36.7292 40.3125H40.3125V36.7292H36.7292V40.3125ZM35.1999 35.1999C35.3679 35.0319 35.5958 34.9375 35.8333 34.9375H37.625V8.0625H35.8333C35.5958 8.0625 35.3679 7.96812 35.1999 7.80012C35.0319 7.63212 34.9375 7.40426 34.9375 7.16667V5.375H8.06251V7.16667C8.06251 7.40426 7.96813 7.63212 7.80013 7.80012C7.63213 7.96812 7.40427 8.0625 7.16668 8.0625H5.37501V34.9375H7.16668C7.40427 34.9375 7.63213 35.0319 7.80013 35.1999C7.96813 35.3679 8.06251 35.5957 8.06251 35.8333V37.625H34.9375V35.8333C34.9375 35.5957 35.0319 35.3679 35.1999 35.1999ZM31.3542 30.4583C31.3487 30.6828 31.2592 30.897 31.1033 31.0585C28.5681 34.1492 11.6458 33.6654 11.6458 30.4583L12.0141 29.7219C14.6835 27.0817 28.4933 27.1412 31.0227 29.7685C30.8313 29.3713 30.705 29.1076 30.609 28.9045C30.7342 29.1664 30.8134 29.3319 30.8927 29.4973L31.1333 29.9984L31.3542 30.4583ZM13.2942 27.09L12.5423 28.6653C12.5786 28.5878 12.5977 28.5464 12.616 28.5068L12.616 28.5067L12.6161 28.5066C12.7135 28.2956 12.7878 28.1346 15.3099 22.8413C19.1554 23.4458 23.8664 23.4448 27.7091 22.8383L29.7346 27.0754C25.4427 25.6209 17.5531 25.6257 13.2942 27.09ZM24.5494 16.2304L26.9007 21.1476C25.3745 21.3632 23.5728 21.5 21.5 21.5C19.4347 21.5 17.6385 21.3642 16.1159 21.1499L18.4582 16.2354C18.7108 16.216 18.9636 16.1992 19.2165 16.1849C18.9593 16.1985 18.7022 16.2143 18.4452 16.2325L19.341 14.3871C20.0444 14.351 20.7682 14.3331 21.4999 14.3333C20.7798 14.3299 20.06 14.3463 19.3413 14.3825L21.5 9.85417L23.6672 14.3856C22.9458 14.3507 22.2204 14.3334 21.5012 14.3333C22.2228 14.3336 22.9521 14.3515 23.6769 14.3871L24.5447 16.2301L24.5494 16.2304ZM21.5 16.125L21.4597 16.1249C21.5948 16.1248 21.7299 16.1253 21.865 16.1264C21.7443 16.1255 21.6226 16.125 21.5 16.125ZM27.0094 32.689C27.6136 32.5801 28.2116 32.4395 28.801 32.2679C28.2127 32.4438 27.6144 32.5844 27.0094 32.689Z" fill="url(#paint0_linear_4_17)"/>
</g>
<defs>
<linearGradient id="paint0_linear_4_17" x1="0.895844" y1="1.79167" x2="42.1042" y2="43" gradientUnits="userSpaceOnUse">
<stop stop-color="#4AF17C"/>
<stop offset="1" stop-color="#00BC40"/>
</linearGradient>
<clipPath id="clip0_4_17">
<rect width="43" height="43" fill="white"/>
</clipPath>
</defs>
</svg>
