<svg width="43" height="43" viewBox="0 0 43 43" fill="none" xmlns="http://www.w3.org/2000/svg">
<g clip-path="url(#clip0_3_2)">
<path d="M28.5 33.5V36L27 37L22.5 36.5L22 37.5L18.5 39.5L14.5 36.5L11.5 37.5L9.5 37L8.5 34L6.5 32.5L3.5 31L3 29L3.5 26L2 24.5L0.5 21L3 18.5V12.5L7.5 10.5L9.5 6L14.5 6.5L18.5 3.5L20 4.5L23.5 6.5L27 5.5L29 7.5V10L33.5 11.5L34.5 13.5L33.5 16.5L34.5 20V22L25 27.5L23.5 31L25.5 33.5H28.5Z" fill="#4AF17C" fill-opacity="0.15"/>
<path fill-rule="evenodd" clip-rule="evenodd" d="M2.543 27.3782C3.13869 26.432 2.74744 25.0676 1.7383 24.5804C-0.583865 23.4035 -0.575115 19.7876 1.73865 18.611C2.21639 18.347 2.55693 17.9122 2.6976 17.3867C2.83827 16.8611 2.76063 16.3147 2.47867 15.8483C1.01722 13.6102 2.78831 10.5176 5.41394 10.6158C5.99996 10.6158 6.4958 10.4109 6.87221 10.0364C7.25941 9.65133 7.46868 9.13935 7.45754 8.58667C7.44152 7.5968 7.78972 6.72693 8.43425 6.07443C9.51994 4.97569 11.2913 4.7284 12.636 5.53945C13.5586 6.11794 14.8934 5.76483 15.4021 4.79874C16.5481 2.42649 20.2195 2.39584 21.4132 4.73566C21.9242 5.70618 23.2504 6.06321 24.1789 5.47489C26.4043 4.02547 29.4836 5.75974 29.4177 8.36442C29.3663 9.51915 30.3304 10.4963 31.4487 10.4482C33.4118 10.3725 34.9962 11.9844 34.9945 13.8706C35.0378 14.4106 34.8171 14.9111 34.5995 15.4049C34.2955 16.0943 33.9974 16.7705 34.4318 17.5222C34.8488 18.3654 33.5869 18.9941 33.1608 18.1685C32.6277 17.122 32.6713 15.8949 33.2774 14.8859C34.1075 13.6215 33.051 11.7709 31.5229 11.8724C29.5762 11.9543 27.9324 10.3075 27.9914 8.40098C28.0487 6.85918 26.2522 5.84661 24.9704 6.66045C23.3185 7.7078 21.0737 7.11765 20.1652 5.42546C19.4806 4.0793 17.3703 4.07822 16.6849 5.42572C15.8298 7.12717 13.516 7.77505 11.9013 6.76066C11.0997 6.2772 10.0837 6.43337 9.44925 7.07543C9.07493 7.4542 8.87262 7.962 8.88342 8.51254C8.9632 10.4604 7.31249 12.0893 5.408 12.0401C4.64579 12.0401 3.99883 12.4171 3.64018 13.0484C3.28118 13.6811 3.29093 14.432 3.66559 15.0577C4.71478 16.7065 4.123 18.9502 2.42922 19.8575C1.05138 20.5572 1.09251 22.7181 2.49385 23.3694C4.15504 24.2458 4.76496 26.5224 3.76597 28.1114C2.92776 29.3931 3.99548 31.1819 5.50864 31.1228C7.41548 31.0315 9.1279 32.6873 9.0513 34.5981C8.99445 36.1403 10.7907 37.1526 12.0726 36.3386C13.724 35.2913 15.9683 35.8816 16.8775 37.5732C17.5628 38.9201 19.6712 38.9205 20.3581 37.5733C21.2131 35.8708 23.5261 35.2248 25.1414 36.2384C26.2278 36.893 27.6707 36.3073 28.0499 35.1769C28.1753 34.8047 28.5799 34.6051 28.9528 34.7282C29.3264 34.8534 29.5273 35.2569 29.4023 35.6304C28.943 36.998 27.6091 37.9538 26.1588 37.9538C25.5404 37.9538 24.9512 37.7875 24.407 37.4599C23.4589 36.8641 22.0945 37.2559 21.6054 38.2632C20.4264 40.5838 16.8078 40.574 15.6299 38.2633C15.119 37.2928 13.792 36.9366 12.8634 37.5238C10.6402 38.9759 7.5579 37.2383 7.62502 34.635C7.67342 33.4667 6.72879 32.5401 5.6024 32.5474C2.98543 32.7587 1.10261 29.5704 2.543 27.3782ZM31.9995 21.0096C32.014 21.3938 31.7025 21.7167 31.3036 21.7307C30.9113 21.7528 30.5699 21.4441 30.5554 21.06C29.4913 6.55812 7.9937 6.96578 7.44493 21.4665C7.42614 27.7982 13.0035 32.9152 19.5626 32.5934C19.9562 32.5703 20.2966 32.8797 20.3107 33.2638C20.3252 33.648 20.0134 33.971 19.6148 33.9845C12.2414 34.3382 5.97951 28.5824 6.00005 21.4666C6.61612 5.15456 30.8011 4.69315 31.9995 21.0096ZM27.2715 21.4428C28.6217 20.5479 27.9676 18.2332 26.3534 18.2813H22.1674C22.0557 18.2813 21.9569 18.2096 21.9187 18.0945L20.5552 14.1383C20.0926 12.6243 17.9121 12.619 17.4474 14.132C17.4474 14.1319 16.0789 18.103 16.0789 18.103C16.0437 18.2096 15.9449 18.2813 15.8332 18.2813H11.6472C10.0362 18.2351 9.37383 20.5469 10.7322 21.4449C10.7322 21.4449 13.9615 23.6647 13.9615 23.6647C14.0613 23.7332 14.104 23.8716 14.0647 23.9888L12.7964 27.6842C12.38 28.7698 13.2508 30.0244 14.3473 29.9996C14.661 29.9997 14.976 29.9036 15.2579 29.7102L18.8615 27.233C18.9455 27.1722 19.0548 27.1729 19.1458 27.2372L21.6825 28.9793C22.4396 29.4944 23.2013 28.2972 22.4445 27.7717C22.4445 27.7718 19.9147 26.0339 19.9147 26.0339C19.3593 25.642 18.6416 25.6434 18.0924 26.0297L14.4959 28.5019C14.3581 28.598 14.2427 28.5351 14.1872 28.4892C14.1304 28.4426 14.0441 28.3395 14.1016 28.1714L15.3713 24.4712C15.6231 23.7205 15.3571 22.8929 14.7243 22.4572L11.498 20.2395C11.2619 20.0649 11.384 19.7288 11.6472 19.7275H15.8332C16.5357 19.7275 17.1608 19.2646 17.3861 18.5839L18.7536 14.6149C18.8067 14.4564 18.9309 14.4327 19.0003 14.4327C19.0697 14.4327 19.1939 14.4564 19.249 14.6213L20.6114 18.5754C20.8398 19.2646 21.4649 19.7275 22.1674 19.7275H26.3534C26.5196 19.7275 26.5855 19.8345 26.6116 19.9245C26.6329 19.9987 26.6475 20.1385 26.5057 20.2374L23.2763 22.4572C22.6435 22.8929 22.3775 23.7205 22.6317 24.4782L23.0127 25.577C23.143 25.9527 23.5406 26.1476 23.9003 26.0113C24.26 25.875 24.4465 25.4605 24.3162 25.0855L23.9376 23.9938C23.8966 23.8716 23.9392 23.7332 24.0391 23.6647L27.2715 21.4428ZM36.1758 18.3123C37.2219 17.6613 38.6942 18.067 39.2837 19.1681L42.6961 25.2418C43.3226 26.3577 42.9491 27.7903 41.8636 28.4353L40.8781 29.0203C40.0921 29.4992 39.0501 29.4182 38.3416 28.8382L37.5814 29.2892L38.6477 31.1871C38.8439 31.5367 38.7276 31.9833 38.3874 32.1852C38.3874 32.1852 34.6935 34.377 34.6935 34.377C33.8795 34.8432 33.1798 33.607 33.9825 33.1113L37.0606 31.2848L36.3498 30.0199L28.9615 34.4034C28.8173 34.4887 28.648 34.5196 28.4849 34.4904C28.4849 34.4904 25.4495 33.9507 25.4325 33.966C25.4325 33.966 24.2012 34.6966 24.2012 34.6966C21.7182 36.0701 19.6696 32.4224 22.0684 30.9003C22.0684 30.9003 23.2997 30.1697 23.3207 30.1624L24.3842 27.191C24.4415 27.0305 24.5519 26.8956 24.6959 26.81L34.0756 21.2453C33.9404 20.3251 34.3965 19.3531 35.1906 18.8966L36.1758 18.3123ZM22.779 32.166C21.9755 32.6465 22.6839 33.9056 23.49 33.431L24.1058 33.0657L23.3948 31.8007C23.3948 31.8007 22.7794 32.166 22.779 32.166ZM25.4079 32.4606L28.4735 33.0057L37.4859 27.6583L34.6421 22.5963L25.6297 27.943L24.5557 30.9438L25.4079 32.4606ZM40.1672 27.7546L41.1523 27.1703C41.5595 26.9284 41.6994 26.3912 41.4644 25.9724L38.052 19.8987C37.8158 19.4762 37.2871 19.3378 36.8867 19.5776C36.8867 19.5776 35.9015 20.162 35.9015 20.1623C35.4998 20.3894 35.3517 20.9567 35.5895 21.3599L39.0022 27.4336C39.223 27.8479 39.7743 27.9968 40.1672 27.7546Z" fill="url(#paint0_linear_3_2)"/>
</g>
<defs>
<linearGradient id="paint0_linear_3_2" x1="10" y1="6.5" x2="39.5" y2="50.5" gradientUnits="userSpaceOnUse">
<stop offset="0.304649" stop-color="#4AF27C"/>
<stop offset="1" stop-color="#0B6629"/>
</linearGradient>
<clipPath id="clip0_3_2">
<rect width="43" height="43" fill="white"/>
</clipPath>
</defs>
</svg>
