<svg width="44" height="44" viewBox="0 0 44 44" fill="none" xmlns="http://www.w3.org/2000/svg">
<circle opacity="0.15" cx="12.375" cy="22" r="11" fill="#0DC64B"/>
<circle opacity="0.15" cx="34.375" cy="9.625" r="8.25" fill="#0DC64B"/>
<circle opacity="0.15" cx="34.375" cy="34.375" r="8.25" fill="#0DC64B"/>
<path fill-rule="evenodd" clip-rule="evenodd" d="M28.1875 9.625C28.1809 10.7238 28.4758 11.8034 29.04 12.7463C28.4893 13.2054 28.0036 13.7374 27.5963 14.3275C26.7378 13.0899 26.2345 11.641 26.1409 10.1377C26.0474 8.63441 26.3671 7.13422 27.0656 5.79975C27.764 4.46529 28.8144 3.34749 30.1029 2.56754C31.3914 1.78759 32.8688 1.37526 34.375 1.37526C35.8812 1.37526 37.3586 1.78759 38.6471 2.56754C39.9356 3.34749 40.986 4.46529 41.6844 5.79975C42.3829 7.13422 42.7026 8.63441 42.6091 10.1377C42.5155 11.641 42.0122 13.0899 41.1538 14.3275C40.7464 13.7374 40.2607 13.2054 39.71 12.7463C40.2742 11.8034 40.5691 10.7238 40.5625 9.625C40.5625 7.98398 39.9106 6.41016 38.7502 5.24978C37.5898 4.0894 36.016 3.4375 34.375 3.4375C32.734 3.4375 31.1602 4.0894 29.9998 5.24978C28.8394 6.41016 28.1875 7.98398 28.1875 9.625ZM34.375 17.8735C32.6626 17.8735 30.9936 17.3353 29.6038 16.335C29.9345 15.7335 30.3725 15.1975 30.8962 14.7538C31.9124 15.4371 33.1092 15.8021 34.3338 15.8021C35.5583 15.8021 36.7551 15.4371 37.7713 14.7538C38.3246 15.19 38.791 15.7264 39.1463 16.335C37.7564 17.3353 36.0874 17.8735 34.375 17.8735ZM4.59683 14.2218C6.65973 12.1589 9.45762 11 12.375 11C15.2924 11 18.0903 12.1589 20.1532 14.2218C22.2161 16.2847 23.375 19.0826 23.375 22C23.3735 23.6694 22.9877 25.3161 22.2475 26.8125C21.5381 25.3589 20.5142 24.0814 19.25 23.0725C19.705 22.0901 19.9396 21.0201 19.9375 19.9375C19.9375 17.9318 19.1407 16.0082 17.7225 14.59C16.3043 13.1718 14.3807 12.375 12.375 12.375C10.3693 12.375 8.44575 13.1718 7.0275 14.59C5.60926 16.0082 4.8125 17.9318 4.8125 19.9375C4.81037 21.0201 5.04502 22.0901 5.5 23.0725C4.23581 24.0814 3.21191 25.3589 2.5025 26.8125C1.7623 25.3161 1.37651 23.6694 1.375 22C1.375 19.0826 2.53393 16.2847 4.59683 14.2218ZM12.375 27.4973C14.3601 27.4973 16.2659 26.7182 17.6825 25.3275C18.9864 26.4252 19.9183 27.8999 20.35 29.5487C19.3224 30.6305 18.0855 31.4918 16.7145 32.0804C15.3434 32.669 13.867 32.9725 12.375 32.9725C10.883 32.9725 9.40659 32.669 8.03558 32.0804C6.66458 31.4918 5.42764 30.6305 4.40002 29.5487C4.83178 27.8999 5.76364 26.4252 7.06752 25.3275C8.4841 26.7182 10.3899 27.4973 12.375 27.4973ZM12.375 24.75C15.0329 24.75 17.1875 22.5954 17.1875 19.9375C17.1875 17.2796 15.0329 15.125 12.375 15.125C9.71713 15.125 7.5625 17.2796 7.5625 19.9375C7.5625 22.5954 9.71713 24.75 12.375 24.75ZM30.1028 27.3172C31.3913 26.5373 32.8688 26.125 34.375 26.125C35.8812 26.125 37.3587 26.5373 38.6473 27.3172C39.9358 28.0972 40.9863 29.215 41.6847 30.5496C42.3831 31.8841 42.7028 33.3843 42.6093 34.8876C42.5157 36.3909 42.0123 37.8399 41.1538 39.0775C40.7464 38.4874 40.2607 37.9554 39.71 37.4963C40.2742 36.5534 40.5691 35.4738 40.5625 34.375C40.5625 32.734 39.9106 31.1602 38.7502 29.9998C37.5899 28.8394 36.016 28.1875 34.375 28.1875C32.734 28.1875 31.1602 28.8394 29.9998 29.9998C28.8394 31.1602 28.1875 32.734 28.1875 34.375C28.1809 35.4738 28.4758 36.5534 29.04 37.4963C28.4893 37.9554 28.0036 38.4874 27.5963 39.0775C26.7377 37.8399 26.2344 36.3909 26.1408 34.8876C26.0472 33.3843 26.3669 31.8841 27.0654 30.5496C27.7638 29.215 28.8142 28.0972 30.1028 27.3172ZM34.3888 40.5521C35.6133 40.5521 36.8101 40.1871 37.8263 39.5038C38.35 39.9475 38.7881 40.4834 39.1188 41.085C37.729 42.0853 36.0599 42.6235 34.3475 42.6235C32.6351 42.6235 30.9661 42.0853 29.5763 41.085C29.9315 40.4764 30.3979 39.94 30.9513 39.5038C31.9674 40.1871 33.1642 40.5521 34.3888 40.5521ZM34.375 38.2663C36.6532 38.2663 38.5 36.4194 38.5 34.1413C38.5 31.8631 36.6532 30.0163 34.375 30.0163C32.0968 30.0163 30.25 31.8631 30.25 34.1413C30.25 36.4194 32.0968 38.2663 34.375 38.2663ZM34.375 13.5163C36.6532 13.5163 38.5 11.6694 38.5 9.39125C38.5 7.11308 36.6532 5.26625 34.375 5.26625C32.0968 5.26625 30.25 7.11308 30.25 9.39125C30.25 11.6694 32.0968 13.5163 34.375 13.5163ZM25.135 12.375C25.3881 13.2401 25.7731 14.0609 26.2762 14.8088L23.375 16.225C22.9129 15.4248 22.3641 14.6778 21.7387 13.9975L25.135 12.375ZM22.9487 28.4075C23.432 27.6155 23.8241 26.7714 24.1175 25.8913L27.2387 27.9125C26.6055 28.5852 26.0854 29.356 25.6987 30.195L22.9487 28.4075Z" fill="url(#paint0_linear_4_26)"/>
<defs>
<linearGradient id="paint0_linear_4_26" x1="3.4375" y1="4.8125" x2="40.5625" y2="42.625" gradientUnits="userSpaceOnUse">
<stop stop-color="#4AF17C"/>
<stop offset="1" stop-color="#00BC40"/>
</linearGradient>
</defs>
</svg>
