<svg width="48" height="48" viewBox="0 0 48 48" fill="none" xmlns="http://www.w3.org/2000/svg">
<path opacity="0.15" d="M36.5 1H7L3 5.5L3.5 29L7 32H21.5H27L28 29.5L41 17V6L36.5 1Z" fill="#4AF17C"/>
<path fill-rule="evenodd" clip-rule="evenodd" d="M21.96 30.645H11.688V2.7015H32.25V16.635C32.25 17.3805 32.8545 17.985 33.6 17.985C34.3455 17.985 34.95 17.3805 34.95 16.635V10.3605H39.5835V11.94C39.5835 12.6855 40.188 13.29 40.9335 13.29C41.679 13.29 42.2835 12.6855 42.2835 11.94V6.765C42.2835 3.036 39.249 0 35.517 0H8.41499C4.68449 0 1.64999 3.0345 1.64999 6.765V26.58C1.64999 30.3105 4.68449 33.3465 8.41499 33.3465H21.96C22.7055 33.3465 23.31 32.742 23.31 31.9965C23.31 31.251 22.7055 30.645 21.96 30.645ZM8.98949 15.3225H4.34999V10.3605H8.98949V15.3225ZM4.34999 18.024H8.98949V22.9875H4.34999V18.024ZM39.585 6.765V7.6605H34.9515V2.7015H35.52C37.761 2.7015 39.585 4.524 39.585 6.765ZM8.41499 2.7015H8.98949V7.6605H4.34999V6.765C4.34999 4.524 6.17399 2.7015 8.41499 2.7015ZM4.34999 26.58V25.6875H8.98949V30.645H8.41499C6.17399 30.645 4.34999 28.821 4.34999 26.58ZM26.202 14.073L22.851 11.7045C21.876 11.016 20.61 10.9305 19.5495 11.4795C18.489 12.0285 17.8305 13.1115 17.8305 14.3055V19.0425C17.8305 20.2365 18.489 21.3195 19.5495 21.8685C20.013 22.1085 20.5155 22.227 21.0165 22.227C21.6615 22.227 22.302 22.029 22.8525 21.642L26.205 19.272C27.048 18.678 27.549 17.7045 27.549 16.674C27.549 15.6435 27.045 14.6685 26.202 14.073ZM24.6435 17.067L21.2925 19.4355C21.0825 19.5825 20.8875 19.521 20.7915 19.4685C20.694 19.419 20.5305 19.296 20.5305 19.041V14.304C20.5305 14.049 20.694 13.926 20.7915 13.8765C20.844 13.848 20.9235 13.818 21.0195 13.818C21.102 13.818 21.1965 13.842 21.2925 13.911L24.6435 16.2795C24.822 16.4055 24.8475 16.5795 24.8475 16.674C24.8475 16.7685 24.822 16.9425 24.6435 17.067ZM38.6295 17.106C40.3935 15.3465 43.2615 15.3435 45.027 17.1075C46.7865 18.87 46.7865 21.7395 45.0255 23.5005L33.312 35.214C32.943 35.5815 32.478 35.8215 31.9665 35.9055L28.4985 36.4935C28.362 36.5145 28.224 36.5265 28.0875 36.5265C27.4335 36.5265 26.8005 36.27 26.331 35.8005C25.764 35.235 25.506 34.425 25.638 33.6345L26.226 30.1605C26.31 29.655 26.55 29.1885 26.9175 28.8195L38.6295 17.106ZM28.35 33.78L31.5225 33.243L39.99 24.735L37.4055 22.1505L28.8285 30.729L28.35 33.78ZM41.895 22.821L43.116 21.594C43.8255 20.8845 43.827 19.728 43.116 19.017C42.7605 18.663 42.294 18.4845 41.826 18.4845C41.361 18.4845 40.893 18.663 40.5375 19.017L39.315 20.241L41.895 22.821Z" fill="url(#paint0_linear_3_10)"/>
<defs>
<linearGradient id="paint0_linear_3_10" x1="3.5" y1="-1.27191e-07" x2="41" y2="34" gradientUnits="userSpaceOnUse">
<stop stop-color="#4AF17C"/>
<stop offset="1" stop-color="#00BC40"/>
</linearGradient>
</defs>
</svg>
