<svg width="34" height="34" viewBox="0 0 34 34" fill="none" xmlns="http://www.w3.org/2000/svg">
<path d="M5.95146 19.0859H5.56464L5.46748 19.4604L3.64071 26.5H0.572629L7.21258 3.02582L7.21477 3.01809L7.2167 3.01029C7.36635 2.40794 7.45198 1.79148 7.4723 1.17135H11.9506L19.3419 26.5H15.8987L14.0326 19.4579L13.934 19.0859H13.5492H5.95146ZM3.58812 26.7665C3.58812 26.7665 3.58812 26.7664 3.58812 26.7662V26.7665ZM3.81051 26.4961C3.81156 26.4959 3.81212 26.4958 3.81213 26.4958L3.81051 26.4961ZM7.1573 1.17157C7.15727 1.17154 7.15825 1.17146 7.16036 1.1714L7.1573 1.17157ZM12.5237 16.2184H13.165L13.0086 15.5964C12.8135 14.8208 12.5433 13.7811 12.2437 12.6286C11.5156 9.82697 10.614 6.35805 10.1961 4.39123L9.2146 4.40838C8.72822 7.16908 7.47873 11.8728 6.47971 15.5886L6.31038 16.2184H6.96257H12.5237ZM23.6674 2.48024L23.6692 2.45881V2.4373C23.6692 1.92184 23.872 1.42851 24.2311 1.06559C24.5902 0.702838 25.076 0.5 25.5815 0.5C26.0869 0.5 26.5728 0.702838 26.9318 1.06559C27.291 1.42851 27.4937 1.92184 27.4937 2.4373V2.45583L27.4951 2.47432C27.5142 2.73278 27.4774 2.99227 27.3872 3.23463C27.297 3.47696 27.1557 3.6961 26.9735 3.87692C26.7914 4.05772 26.5727 4.19587 26.333 4.28207C26.0933 4.36827 25.838 4.40056 25.5849 4.37678L25.5442 4.37296L25.5034 4.3758C25.2557 4.39304 25.0072 4.35587 24.7748 4.26673C24.5424 4.17759 24.3315 4.03848 24.1567 3.85865C23.9819 3.67881 23.8474 3.4625 23.7629 3.22445C23.6783 2.98639 23.6456 2.73247 23.6674 2.48024ZM23.9726 8.07459H27.2337V26.5H23.9726V8.07459ZM23.7736 26.4993C23.7736 26.4993 23.774 26.4994 23.7748 26.4995L23.7736 26.4993ZM23.9728 26.7034C23.9732 26.7065 23.9733 26.7081 23.9732 26.708C23.9732 26.708 23.973 26.7065 23.9728 26.7034ZM27.4576 8.07516C27.4575 8.07522 27.4559 8.07515 27.453 8.07475C27.4562 8.07489 27.4577 8.07509 27.4576 8.07516Z" stroke="#28D960"/>
</svg>
