<svg width="37" height="37" viewBox="0 0 37 37" fill="none" xmlns="http://www.w3.org/2000/svg">
<path d="M0.524017 0.618131H0.543311L0.562548 0.616644C2.067 0.500363 4.28541 0.5 6.65211 0.5C9.85001 0.5 11.9899 1.3881 13.3326 2.76029C14.678 4.13538 15.2933 6.06851 15.2933 8.2987C15.2933 11.2243 14.2552 13.2584 12.6247 14.5727C10.9778 15.9004 8.66754 16.5404 6.05531 16.5404H4.2067H3.7067V17.0404V26.0795H0.5V0.621192C0.514717 0.618602 0.523164 0.618174 0.523957 0.618134C0.524005 0.618132 0.524025 0.618131 0.524017 0.618131ZM3.70597 26.2995C3.7059 26.2994 3.70599 26.2977 3.70647 26.2945C3.70628 26.298 3.70605 26.2996 3.70597 26.2995ZM0.278153 26.0789C0.278224 26.0788 0.279813 26.0789 0.282696 26.0793C0.279523 26.0791 0.278081 26.0789 0.278153 26.0789ZM0.500262 26.2946C0.500402 26.2957 0.500442 26.2963 0.500429 26.2963L0.500262 26.2946ZM3.73581 13.2897V13.7617L4.20697 13.7889C4.86134 13.8267 5.51729 13.827 6.17168 13.7897C7.59785 13.7879 9.06315 13.5221 10.1836 12.6975C11.336 11.8494 12.0429 10.4709 12.0429 8.43159C12.0429 6.79767 11.5374 5.49511 10.5418 4.60841C9.55565 3.73019 8.16075 3.32449 6.50655 3.32449C6.02149 3.32449 5.54993 3.3434 5.15143 3.36195C5.06826 3.36582 4.9891 3.36962 4.91412 3.37322C4.62096 3.3873 4.39164 3.39832 4.23581 3.39832H3.73581V3.89832V13.2897ZM23.1587 26.4929H23.1493L23.14 26.4933C21.5722 26.5517 20.0134 26.2296 18.5932 25.554V22.5292C19.9789 23.3355 21.5488 23.7702 23.1536 23.7865V23.7866H23.1587C24.1649 23.7866 24.96 23.576 25.5139 23.1463C26.0866 22.7021 26.337 22.0736 26.337 21.3965C26.337 21.0804 26.2969 20.7754 26.179 20.4758C26.0607 20.1751 25.8751 19.9078 25.621 19.6511C25.1308 19.156 24.3415 18.6598 23.1692 18.0064L23.1568 17.9995L23.1441 17.9934C21.4826 17.187 20.3626 16.3996 19.6554 15.5154C18.9616 14.648 18.6368 13.6519 18.6368 12.3594C18.6368 10.9342 19.1839 9.6447 20.1974 8.70841C21.2115 7.77152 22.7249 7.15963 24.7016 7.15963H24.7131L24.7247 7.1591C26.0771 7.09665 27.4282 7.30547 28.7008 7.7734C28.7008 7.7741 28.7008 7.77482 28.7007 7.77555L28.6994 7.79345V7.81141V10.7229C27.4444 10.0947 26.0532 9.78892 24.6492 9.83646C23.6304 9.83798 22.875 10.104 22.3666 10.5461C21.8551 10.9909 21.6397 11.5752 21.6397 12.1084C21.6397 12.6376 21.7999 13.131 22.3076 13.6572C22.7838 14.1508 23.571 14.6794 24.8164 15.3408L24.8261 15.346L24.836 15.3507C26.6976 16.2368 27.8543 17.0851 28.5493 17.9832C29.2312 18.8643 29.5 19.8345 29.5 21.0421V21.0864C29.5 22.8752 28.8307 24.2049 27.737 25.0975C26.6304 26.0006 25.0426 26.4929 23.1587 26.4929ZM18.5936 21.9906C18.5936 21.9905 18.5936 21.9909 18.5935 21.9917L18.5936 21.9906ZM18.1044 22.2243C18.1028 22.2233 18.1027 22.2231 18.1042 22.2241L18.1044 22.2243ZM28.6993 11.1233C28.6993 11.1233 28.6993 11.1227 28.6994 11.1217L28.6993 11.1233Z" stroke="#28D960"/>
</svg>
