<svg width="47" height="45" viewBox="0 0 47 45" fill="none" xmlns="http://www.w3.org/2000/svg">
<g clip-path="url(#clip0_12_22)">
<path fill-rule="evenodd" clip-rule="evenodd" d="M21.0513 0C7.32931 4.92309 2.07905 17.8593 0 24.5261C4.98225 17.4598 7.58124 13.9139 13.2547 14.6811V32.3078H8.57676C11.6954 36.9231 19.4917 40 24.1699 40L28.8477 35.3847L33.5259 38.4616C36.6444 38.4616 43.4771 31.8136 46 26.1537C42.8815 29.231 38.7233 29.7433 36.6444 29.231V10.7691C38.4454 6.99424 39.8589 4.97585 42.8815 1.53827C37.8919 1.53827 30.4535 7.4571 28.8477 10.7691V29.231C28.8477 29.231 26.1122 30.769 24.1699 30.769C22.9224 30.769 21.571 29.7433 21.0513 29.231V0Z" stroke="#28D960"/>
</g>
<defs>
<clipPath id="clip0_12_22">
<rect width="47" height="45" fill="white"/>
</clipPath>
</defs>
</svg>
